<svg width="43" height="40" viewBox="0 0 43 40" fill="none" xmlns="http://www.w3.org/2000/svg">
<path d="M41.1428 0.671484L41.1426 0.671449C39.6188 0.431871 38.0758 0.30853 36.5296 0.302724C31.2537 0.298854 26.0896 1.67998 21.6531 4.27919L21.5013 4.36814L21.3489 4.28023C16.9008 1.71503 11.7373 0.367786 6.47187 0.400718L6.47111 0.400723C4.9247 0.406506 3.38156 0.529845 1.85769 0.769442L41.1428 0.671484ZM41.1428 0.671484C41.5638 0.737359 41.9427 0.931986 42.2187 1.2174C42.4925 1.50042 42.6488 1.8553 42.669 2.22274L42.669 25.7347L42.669 25.7396C42.6729 25.9785 42.619 26.2163 42.5101 26.4362C42.4011 26.6564 42.2391 26.8543 42.0336 27.0146C41.8281 27.1749 41.5846 27.2933 41.32 27.3596C41.0554 27.426 40.7775 27.4384 40.5067 27.3957L40.5037 27.3953C37.3745 26.934 34.1757 27.0509 31.0966 27.7391C28.023 28.4261 25.13 29.6686 22.5888 31.3944L22.4122 31.4884H22.2516H22.196L22.144 31.5082C21.9407 31.5855 21.7218 31.6256 21.5001 31.6256C21.2784 31.6256 21.0595 31.5855 20.8562 31.5082L20.8042 31.4884H20.7486H20.588L20.4096 31.3934L41.1428 0.671484ZM0.331243 2.4304H0.331205V25.9503V25.9552L0.331166 25.9552C0.327351 26.1941 0.38119 26.4318 0.490117 26.6518C0.599117 26.872 0.761125 27.0699 0.966576 27.2302C1.17211 27.3905 1.41559 27.5089 1.6802 27.5752C1.94478 27.6416 2.22259 27.654 2.49341 27.6113C2.49346 27.6113 2.4935 27.6113 2.49355 27.6113L2.54067 27.9103C5.61759 27.424 8.77002 27.5047 11.8123 28.1476L0.331243 2.4304ZM0.331243 2.4304L0.331166 2.42558M0.331243 2.4304L0.331166 2.42558M0.331166 2.42558C0.325008 2.03895 0.469967 1.65866 0.747196 1.35377C1.02505 1.04819 1.41791 0.838661 1.85765 0.769449L0.331166 2.42558ZM41.1462 32.0319L41.1426 32.0314C39.6188 31.7918 38.0758 31.6685 36.5295 31.6626C31.2537 31.6588 26.0896 33.0399 21.6531 35.6391L21.5001 35.7288L21.3471 35.6391C16.9106 33.0399 11.7465 31.6588 6.47069 31.6626C4.92441 31.6685 3.38139 31.7918 1.85765 32.0314L1.85403 32.0319L1.85403 32.0319C1.61055 32.0672 1.37822 32.1459 1.17034 32.2626C0.962488 32.3794 0.783826 32.5314 0.643562 32.7088C0.50336 32.8861 0.404161 33.0854 0.350192 33.2948C0.296657 33.5026 0.28834 33.7174 0.32553 33.9277C0.417203 34.3485 0.689043 34.7276 1.09297 34.9766C1.49914 35.2269 2.00145 35.3219 2.48839 35.2366L2.4934 35.2357L2.49341 35.2357C5.60675 34.7437 8.7964 34.8253 11.8748 35.4759C14.953 36.1264 17.8587 37.3328 20.4208 39.0252M41.1462 32.0319L20.2547 39.2783M41.1462 32.0319C41.3897 32.0672 41.622 32.1459 41.8299 32.2626C42.0377 32.3794 42.2164 32.5314 42.3566 32.7088C42.4968 32.8861 42.596 33.0854 42.65 33.2948C42.7035 33.5026 42.7119 33.7174 42.6747 33.9277C42.583 34.3485 42.3112 34.7276 41.9072 34.9766C41.5011 35.2269 40.9988 35.3219 40.5118 35.2365L40.5068 35.2357C37.3935 34.7437 34.2038 34.8253 31.1254 35.4759C28.0473 36.1264 25.1416 37.3328 22.5795 39.0251M41.1462 32.0319L22.7455 39.2783M20.4208 39.0252C20.421 39.0254 20.4213 39.0255 20.4216 39.0257L20.2547 39.2783M20.4208 39.0252C20.4204 39.0249 20.4201 39.0247 20.4197 39.0245L20.2547 39.2783M20.4208 39.0252C20.7336 39.2282 21.1109 39.3389 21.5001 39.3389C21.8894 39.3389 22.2667 39.2282 22.5795 39.0251M20.2547 39.2783C20.6184 39.5147 21.0537 39.6417 21.5001 39.6417C21.9465 39.6417 22.3818 39.5147 22.7455 39.2783M22.5795 39.0251C22.5792 39.0253 22.5789 39.0255 22.5786 39.0257L22.7455 39.2783M22.5795 39.0251C22.5799 39.0249 22.5802 39.0247 22.5805 39.0245L22.7455 39.2783M19.2219 26.6936L19.6557 26.9019V26.4207V7.44799V7.27708L19.5093 7.18879C15.6415 4.85529 11.1094 3.61406 6.47777 3.61728C5.75474 3.57952 5.02993 3.57966 4.30691 3.6177L4.0201 3.63279V3.92V23.5199V23.8227H4.32281H4.32709H4.33137H4.33564H4.33992H4.34419H4.34847H4.35274H4.35702H4.36129H4.36556H4.36984H4.37411H4.37838H4.38265H4.38692H4.39119H4.39546H4.39973H4.404H4.40827H4.41253H4.4168H4.42107H4.42533H4.4296H4.43387H4.43813H4.44239H4.44666H4.45092H4.45518H4.45945H4.46371H4.46797H4.47223H4.47649H4.48075H4.48501H4.48927H4.49353H4.49779H4.50205H4.50631H4.51056H4.51482H4.51908H4.52333H4.52759H4.53184H4.5361H4.54035H4.5446H4.54886H4.55311H4.55736H4.56161H4.56586H4.57011H4.57436H4.57861H4.58286H4.58711H4.59136H4.59561H4.59986H4.60411H4.60835H4.6126H4.61685H4.62109H4.62534H4.62958H4.63383H4.63807H4.64231H4.64656H4.6508H4.65504H4.65928H4.66353H4.66777H4.67201H4.67625H4.68049H4.68473H4.68897H4.6932H4.69744H4.70168H4.70592H4.71015H4.71439H4.71863H4.72286H4.7271H4.73133H4.73557H4.7398H4.74404H4.74827H4.7525H4.75674H4.76097H4.7652H4.76943H4.77366H4.77789H4.78212H4.78635H4.79058H4.79481H4.79904H4.80327H4.8075H4.81172H4.81595H4.82018H4.8244H4.82863H4.83286H4.83708H4.84131H4.84553H4.84976H4.85398H4.8582H4.86243H4.86665H4.87087H4.87509H4.87931H4.88353H4.88776H4.89198H4.8962H4.90042H4.90464H4.90885H4.91307H4.91729H4.92151H4.92573H4.92994H4.93416H4.93838H4.94259H4.94681H4.95103H4.95524H4.95946H4.96367H4.96788H4.9721H4.97631H4.98052H4.98474H4.98895H4.99316H4.99737H5.00158H5.0058H5.01001H5.01422H5.01843H5.02264H5.02685H5.03105H5.03526H5.03947H5.04368H5.04789H5.0521H5.0563H5.06051H5.06472H5.06892H5.07313H5.07733H5.08154H5.08574H5.08995H5.09415H5.09835H5.10256H5.10676H5.11096H5.11517H5.11937H5.12357H5.12777H5.13197H5.13618H5.14038H5.14458H5.14878H5.15298H5.15718H5.16138H5.16557H5.16977H5.17397H5.17817H5.18237H5.18656H5.19076H5.19496H5.19915H5.20335H5.20755H5.21174H5.21594H5.22013H5.22433H5.22852H5.23272H5.23691H5.2411H5.2453H5.24949H5.25368H5.25788H5.26207H5.26626H5.27045H5.27464H5.27883H5.28303H5.28722H5.29141H5.2956H5.29979H5.30398H5.30816H5.31235H5.31654H5.32073H5.32492H5.32911H5.33329H5.33748H5.34167H5.34586H5.35004H5.35423H5.35841H5.3626H5.36679H5.37097H5.37516H5.37934H5.38353H5.38771H5.39189H5.39608H5.40026H5.40444H5.40863H5.41281H5.41699H5.42118H5.42536H5.42954H5.43372H5.4379H5.44208H5.44626H5.45044H5.45463H5.45881H5.46299H5.46717H5.47134H5.47552H5.4797H5.48388H5.48806H5.49224H5.49642H5.5006H5.50477H5.50895H5.51313H5.5173H5.52148H5.52566H5.52983H5.53401H5.53819H5.54236H5.54654H5.55071H5.55489H5.55906H5.56324H5.56741H5.57159H5.57576H5.57993H5.58411H5.58828H5.59245H5.59663H5.6008H5.60497H5.60914H5.61332H5.61749H5.62166H5.62583H5.63H5.63418H5.63835H5.64252H5.64669H5.65086H5.65503H5.6592H5.66337H5.66754H5.67171H5.67588H5.68005H5.68421H5.68838H5.69255H5.69672H5.70089H5.70506H5.70923H5.71339H5.71756H5.72173H5.72589H5.73006H5.73423H5.7384H5.74256H5.74673H5.75089H5.75506H5.75923H5.76339H5.76756H5.77172H5.77589H5.78005H5.78422H5.78838H5.79255H5.79671H5.80088H5.80504H5.8092H5.81337H5.81753H5.8217H5.82586H5.83002H5.83418H5.83835H5.84251H5.84667H5.85084H5.855H5.85916H5.86332H5.86748H5.87165H5.87581H5.87997H5.88413H5.88829H5.89245H5.89661H5.90077H5.90493H5.9091H5.91326H5.91742H5.92158H5.92574H5.9299H5.93406H5.93822H5.94238H5.94653H5.95069H5.95485H5.95901H5.96317H5.96733H5.97149H5.97565H5.97981H5.98396H5.98812H5.99228H5.99644H6.0006H6.00475H6.00891H6.01307H6.01723H6.02138H6.02554H6.0297H6.03386H6.03801H6.04217H6.04633H6.05048H6.05464H6.0588H6.06295H6.06711H6.07127H6.07542H6.07958H6.08373H6.08789H6.09204H6.0962H6.10036H6.10451H6.10867H6.11282H6.11698H6.12113H6.12529H6.12944H6.1336H6.13775H6.14191H6.14606H6.15022H6.15437H6.15853H6.16268H6.16683H6.17099H6.17514H6.1793H6.18345H6.1876H6.19176H6.19591H6.20007H6.20422H6.20837H6.21253H6.21668H6.22083H6.22499H6.22914H6.23329H6.23745H6.2416H6.24575H6.24991H6.25406H6.25821H6.26237H6.26652H6.27067H6.27483H6.27898H6.28313H6.28728H6.29144H6.29559H6.29974H6.30389H6.30805H6.3122H6.31635H6.3205H6.32466H6.32881H6.33296H6.33711H6.34126H6.34542H6.34957H6.35372H6.35787H6.36203H6.36618H6.37033H6.37448H6.37863H6.38279H6.38694H6.39109H6.39524H6.39939H6.40354H6.4077H6.41185H6.416H6.42015H6.4243H6.42846H6.43261H6.43676H6.44091H6.44506H6.44921H6.45337H6.45752H6.46167H6.46582H6.46997H6.47014C10.9143 23.8202 15.2911 24.806 19.2219 26.6936ZM38.6774 23.9011H38.9801V23.5983V3.92V3.63279L38.6933 3.6177C37.9703 3.57966 37.2455 3.57952 36.5224 3.61728C31.8908 3.61406 27.3587 4.85529 23.4909 7.18879L23.3446 7.27708V7.44799V26.4991V26.9803L23.7783 26.772C27.7091 24.8844 32.0859 23.8986 36.5301 23.9011H36.5302H36.5344H36.5385H36.5427H36.5468H36.551H36.5551H36.5593H36.5634H36.5676H36.5718H36.5759H36.5801H36.5842H36.5884H36.5925H36.5967H36.6008H36.605H36.6091H36.6133H36.6174H36.6216H36.6257H36.6299H36.634H36.6382H36.6423H36.6465H36.6506H36.6548H36.6589H36.6631H36.6672H36.6714H36.6755H36.6797H36.6839H36.688H36.6922H36.6963H36.7005H36.7046H36.7088H36.7129H36.7171H36.7212H36.7254H36.7295H36.7337H36.7378H36.742H36.7461H36.7503H36.7545H36.7586H36.7628H36.7669H36.7711H36.7752H36.7794H36.7835H36.7877H36.7918H36.796H36.8001H36.8043H36.8084H36.8126H36.8168H36.8209H36.8251H36.8292H36.8334H36.8375H36.8417H36.8458H36.85H36.8541H36.8583H36.8625H36.8666H36.8708H36.8749H36.8791H36.8832H36.8874H36.8915H36.8957H36.8999H36.904H36.9082H36.9123H36.9165H36.9206H36.9248H36.9289H36.9331H36.9373H36.9414H36.9456H36.9497H36.9539H36.958H36.9622H36.9664H36.9705H36.9747H36.9788H36.983H36.9871H36.9913H36.9955H36.9996H37.0038H37.0079H37.0121H37.0162H37.0204H37.0246H37.0287H37.0329H37.037H37.0412H37.0454H37.0495H37.0537H37.0578H37.062H37.0661H37.0703H37.0745H37.0786H37.0828H37.087H37.0911H37.0953H37.0994H37.1036H37.1078H37.1119H37.1161H37.1202H37.1244H37.1286H37.1327H37.1369H37.141H37.1452H37.1494H37.1535H37.1577H37.1619H37.166H37.1702H37.1743H37.1785H37.1827H37.1868H37.191H37.1952H37.1993H37.2035H37.2077H37.2118H37.216H37.2202H37.2243H37.2285H37.2326H37.2368H37.241H37.2451H37.2493H37.2535H37.2576H37.2618H37.266H37.2701H37.2743H37.2785H37.2826H37.2868H37.291H37.2951H37.2993H37.3035H37.3077H37.3118H37.316H37.3202H37.3243H37.3285H37.3327H37.3368H37.341H37.3452H37.3493H37.3535H37.3577H37.3619H37.366H37.3702H37.3744H37.3785H37.3827H37.3869H37.3911H37.3952H37.3994H37.4036H37.4078H37.4119H37.4161H37.4203H37.4244H37.4286H37.4328H37.437H37.4411H37.4453H37.4495H37.4537H37.4578H37.462H37.4662H37.4704H37.4745H37.4787H37.4829H37.4871H37.4913H37.4954H37.4996H37.5038H37.508H37.5121H37.5163H37.5205H37.5247H37.5289H37.533H37.5372H37.5414H37.5456H37.5498H37.5539H37.5581H37.5623H37.5665H37.5707H37.5748H37.579H37.5832H37.5874H37.5916H37.5958H37.5999H37.6041H37.6083H37.6125H37.6167H37.6209H37.6251H37.6292H37.6334H37.6376H37.6418H37.646H37.6502H37.6544H37.6585H37.6627H37.6669H37.6711H37.6753H37.6795H37.6837H37.6879H37.692H37.6962H37.7004H37.7046H37.7088H37.713H37.7172H37.7214H37.7256H37.7298H37.7339H37.7381H37.7423H37.7465H37.7507H37.7549H37.7591H37.7633H37.7675H37.7717H37.7759H37.7801H37.7843H37.7885H37.7927H37.7969H37.8011H37.8052H37.8094H37.8136H37.8178H37.822H37.8262H37.8304H37.8346H37.8388H37.843H37.8472H37.8514H37.8556H37.8598H37.864H37.8682H37.8724H37.8766H37.8808H37.885H37.8892H37.8934H37.8976H37.9019H37.9061H37.9103H37.9145H37.9187H37.9229H37.9271H37.9313H37.9355H37.9397H37.9439H37.9481H37.9523H37.9565H37.9607H37.9649H37.9692H37.9734H37.9776H37.9818H37.986H37.9902H37.9944H37.9986H38.0028H38.007H38.0113H38.0155H38.0197H38.0239H38.0281H38.0323H38.0365H38.0408H38.045H38.0492H38.0534H38.0576H38.0618H38.066H38.0703H38.0745H38.0787H38.0829H38.0871H38.0914H38.0956H38.0998H38.104H38.1082H38.1125H38.1167H38.1209H38.1251H38.1293H38.1336H38.1378H38.142H38.1462H38.1505H38.1547H38.1589H38.1631H38.1674H38.1716H38.1758H38.18H38.1843H38.1885H38.1927H38.1969H38.2012H38.2054H38.2096H38.2139H38.2181H38.2223H38.2265H38.2308H38.235H38.2392H38.2435H38.2477H38.2519H38.2562H38.2604H38.2646H38.2689H38.2731H38.2773H38.2816H38.2858H38.2901H38.2943H38.2985H38.3028H38.307H38.3112H38.3155H38.3197H38.324H38.3282H38.3324H38.3367H38.3409H38.3452H38.3494H38.3537H38.3579H38.3621H38.3664H38.3706H38.3749H38.3791H38.3834H38.3876H38.3919H38.3961H38.4003H38.4046H38.4088H38.4131H38.4173H38.4216H38.4258H38.4301H38.4343H38.4386H38.4428H38.4471H38.4514H38.4556H38.4599H38.4641H38.4684H38.4726H38.4769H38.4811H38.4854H38.4896H38.4939H38.4982H38.5024H38.5067H38.5109H38.5152H38.5195H38.5237H38.528H38.5322H38.5365H38.5408H38.545H38.5493H38.5535H38.5578H38.5621H38.5663H38.5706H38.5749H38.5791H38.5834H38.5877H38.5919H38.5962H38.6005H38.6047H38.609H38.6133H38.6176H38.6218H38.6261H38.6304H38.6346H38.6389H38.6432H38.6475H38.6517H38.656H38.6603H38.6646H38.6688H38.6731H38.6774ZM38.3747 23.5983H36.5302L38.6774 3.92V23.2956V23.5983H38.3747Z" fill="#7B8BB2" stroke="white" stroke-width="0.3"/>
</svg>
