<svg width="40" height="40" viewBox="0 0 40 40" fill="none" xmlns="http://www.w3.org/2000/svg">
<path d="M30.625 39.9942H9.375C4.20563 39.9942 0 35.7886 0 30.6192V17.473C0 14.5675 1.3793 11.7808 3.68953 10.0187L14.3145 1.9149C17.6621 -0.638301 22.3379 -0.638301 25.6855 1.9149L36.3105 10.0187C38.6207 11.7808 40 14.5674 40 17.473V30.6192C40 35.7886 35.7944 39.9942 30.625 39.9942ZM20 3.12303C18.6626 3.12303 17.3257 3.5485 16.2097 4.39959L5.58469 12.5034C4.04453 13.6782 3.125 15.5359 3.125 17.473V30.6192C3.125 34.0654 5.92875 36.8692 9.375 36.8692H30.625C34.0713 36.8692 36.875 34.0654 36.875 30.6192V17.473C36.875 15.536 35.9555 13.6782 34.4153 12.5035L23.7903 4.39967C22.6746 3.54873 21.3371 3.12303 20 3.12303Z" fill="#376AED"/>
</svg>
