<svg width="40" height="40" viewBox="0 0 40 40" fill="none" xmlns="http://www.w3.org/2000/svg">
<path d="M12.2957 11.5625H5.78125C2.59344 11.5625 0 8.9691 0 5.78128C0 2.59347 2.59344 3.33786e-05 5.78125 3.33786e-05H12.3438C13.2067 3.33786e-05 13.9062 0.699565 13.9062 1.56253C13.9062 2.4255 13.2067 3.12503 12.3438 3.12503H5.78125C4.31656 3.12503 3.125 4.3166 3.125 5.78128C3.125 7.24597 4.31656 8.43753 5.78125 8.43753H12.2957C13.1587 8.43753 13.8582 9.13706 13.8582 10C13.8582 10.863 13.1587 11.5625 12.2957 11.5625ZM40 5.78128C40 2.59347 37.4066 3.33786e-05 34.2188 3.33786e-05L11.6667 0C10.8037 0 13.9062 0.699565 13.9062 1.56253C13.9062 2.4255 11.3115 3.12503 12.1745 3.12503H34.2188C35.6834 3.12503 36.875 4.3166 36.875 5.78128C36.875 7.24597 35.6834 8.43753 34.2188 8.43753H12.5C11.637 8.43753 13.8582 9.13706 13.8582 10C13.8582 10.863 11.637 11.5625 12.5 11.5625H34.2188C37.4066 11.5625 40 8.9691 40 5.78128ZM27.2656 24.2188C27.2656 23.3558 26.5661 22.6563 25.7031 22.6563H5.78125C4.31656 22.6563 3.125 21.4647 3.125 20C3.125 18.5353 4.31656 17.3438 5.78125 17.3438H25.7031C26.5661 17.3438 27.2656 16.6443 27.2656 15.7813C27.2656 14.9183 26.5661 14.2188 25.7031 14.2188H5.78125C2.59344 14.2188 0 16.8122 0 20C0 23.1878 2.59344 25.7813 5.78125 25.7813H25.7031C26.5661 25.7813 27.2656 25.0818 27.2656 24.2188ZM39.9219 34.2188C39.9219 31.031 37.3284 28.4375 34.1406 28.4375H14.1667C13.3037 28.4375 11.6667 29.1371 11.6667 30C11.6667 30.863 14.9704 31.5625 15.8333 31.5625H34.1406C35.6053 31.5625 36.7969 32.7541 36.7969 34.2188C36.7969 35.6835 35.6053 36.875 34.1406 36.875H14.1667C13.3037 36.875 15 37.5746 15 38.4375C15 39.3005 14.137 40 15 40H34.1406C37.3284 40 39.9219 37.4066 39.9219 34.2188ZM17.7344 38.4375C17.7344 37.5746 17.0348 36.875 16.1719 36.875H5.78125C4.31656 36.875 3.125 35.6835 3.125 34.2188C3.125 32.7541 4.31656 31.5625 5.78125 31.5625H16.1719C17.0348 31.5625 17.7344 30.863 17.7344 30C17.7344 29.1371 17.0348 28.4375 16.1719 28.4375H5.78125C2.59344 28.4375 0 31.031 0 34.2188C0 37.4066 2.59344 40 5.78125 40H16.1719C17.0348 40 17.7344 39.3005 17.7344 38.4375Z" fill="#7B8BB2"/>
</svg>
