<svg width="42" height="41" viewBox="0 0 42 41" fill="none" xmlns="http://www.w3.org/2000/svg">
<path d="M40.3594 18.583H22.6407V1.57483C22.6407 0.705052 21.9061 0 21 0C20.0939 0 19.3594 0.705052 19.3594 1.57483V18.583H1.64063C0.734509 18.583 0 19.2881 0 20.1578C0 21.0276 0.734509 21.7327 1.64063 21.7327H19.3594V38.7408C19.3594 39.6106 20.0939 40.3157 21 40.3157C21.9061 40.3157 22.6407 39.6106 22.6407 38.7408V21.7327H40.3594C41.2656 21.7327 42.0001 21.0276 42.0001 20.1578C42.0001 19.2881 41.2656 18.583 40.3594 18.583Z" fill="#8FE6FF"/>
</svg>
